<svg width="20" height="20" viewBox="0 0 21 20" fill="none" xmlns="http://www.w3.org/2000/svg">
<g id="clock">
<path id="clock_2" d="M10.5003 1.04199C5.56033 1.04199 1.54199 5.06033 1.54199 10.0003C1.54199 14.9403 5.56033 18.9587 10.5003 18.9587C15.4403 18.9587 19.4587 14.9403 19.4587 10.0003C19.4587 5.06033 15.4403 1.04199 10.5003 1.04199ZM10.5003 17.7087C6.24949 17.7087 2.79199 14.2512 2.79199 10.0003C2.79199 5.74949 6.24949 2.29199 10.5003 2.29199C14.7512 2.29199 18.2087 5.74949 18.2087 10.0003C18.2087 14.2512 14.7512 17.7087 10.5003 17.7087ZM13.442 12.0586C13.6862 12.3028 13.6862 12.6987 13.442 12.9428C13.3204 13.0645 13.1603 13.1261 13.0003 13.1261C12.8403 13.1261 12.6803 13.0653 12.5586 12.9428L10.0586 10.4428C9.94113 10.3253 9.87533 10.1661 9.87533 10.0011V5.83447C9.87533 5.48947 10.1553 5.20947 10.5003 5.20947C10.8453 5.20947 11.1253 5.48947 11.1253 5.83447V9.74194L13.442 12.0586Z" fill="#BEBDBD"/>
</g>
</svg>
