<svg width="22" height="16" viewBox="0 0 22 16" fill="none" xmlns="http://www.w3.org/2000/svg">
<path fill-rule="evenodd" clip-rule="evenodd" d="M0.25 3C0.25 1.48122 1.48122 0.25 3 0.25H19C20.5188 0.25 21.75 1.48122 21.75 3V13C21.75 14.5188 20.5188 15.75 19 15.75H3C1.48122 15.75 0.25 14.5188 0.25 13V3ZM3 1.75C2.30964 1.75 1.75 2.30964 1.75 3V13C1.75 13.6904 2.30964 14.25 3 14.25H19C19.6904 14.25 20.25 13.6904 20.25 13V5.75H5C4.58579 5.75 4.25 5.41421 4.25 5C4.25 4.58579 4.58579 4.25 5 4.25H20.25V3C20.25 2.30964 19.6904 1.75 19 1.75H3Z" fill="#74767A"/>
<path fill-rule="evenodd" clip-rule="evenodd" d="M16.5 9.75C16.3074 9.75 16.1334 9.82159 16.0002 9.9408C15.6915 10.217 15.2174 10.1908 14.9411 9.88213C14.6649 9.57349 14.6912 9.09934 14.9998 8.8231C15.3974 8.46726 15.9242 8.25 16.5 8.25C17.7426 8.25 18.75 9.25736 18.75 10.5C18.75 11.7426 17.7426 12.75 16.5 12.75C15.9242 12.75 15.3974 12.5327 14.9998 12.1769C14.6912 11.9007 14.6649 11.4265 14.9411 11.1179C15.2174 10.8092 15.6915 10.783 16.0002 11.0592C16.1334 11.1784 16.3074 11.25 16.5 11.25C16.9142 11.25 17.25 10.9142 17.25 10.5C17.25 10.0858 16.9142 9.75 16.5 9.75Z" fill="#74767A"/>
<path fill-rule="evenodd" clip-rule="evenodd" d="M14.5 9.75C14.6926 9.75 14.8666 9.82159 14.9998 9.9408C15.3085 10.217 15.7826 10.1908 16.0589 9.88213C16.3351 9.57349 16.3088 9.09934 16.0002 8.8231C15.6026 8.46726 15.0758 8.25 14.5 8.25C13.2574 8.25 12.25 9.25736 12.25 10.5C12.25 11.7426 13.2574 12.75 14.5 12.75C15.0758 12.75 15.6026 12.5327 16.0002 12.1769C16.3088 11.9007 16.3351 11.4265 16.0589 11.1179C15.7826 10.8092 15.3085 10.783 14.9998 11.0592C14.8666 11.1784 14.6926 11.25 14.5 11.25C14.0858 11.25 13.75 10.9142 13.75 10.5C13.75 10.0858 14.0858 9.75 14.5 9.75Z" fill="#74767A"/>
</svg>
