<svg width="128" height="26" viewBox="0 0 128 26" fill="none" xmlns="http://www.w3.org/2000/svg">
<path d="M27.4519 0.526123H10.9102V4.48574C11.544 4.16877 12.3389 3.71149 12.9883 3.64393C13.7468 3.56079 15.5859 3.1243 16.4431 3.1191C16.9419 3.1191 18.0277 3.39451 18.4537 3.51403C18.8797 3.63354 20.376 4.15318 20.6773 4.27789C20.9215 4.37142 21.9865 5.07293 22.4749 5.4055C22.1112 5.61855 21.4098 6.04465 21.654 6.01347C21.9605 6.01347 22.932 5.37432 23.3633 5.00538C23.7269 4.72997 24.3711 3.66472 24.6725 3.17626C24.6725 3.42049 24.6725 4.02846 24.6413 4.42858C24.6101 4.94822 24.3971 5.70689 24.2153 6.22652C24.0334 6.74616 23.7581 6.89685 23.7893 7.02156C23.8204 7.17226 24.0023 7.78543 24.0023 8.06083C23.9711 8.33624 24.1529 8.48693 24.2465 8.76234C24.3088 8.97539 24.7036 9.55738 24.8855 9.80161C24.979 9.92113 25.192 10.2277 25.3115 10.3524C25.4621 10.4719 25.405 10.5343 25.3738 10.5343V10.8409C25.3427 10.8721 25.3115 10.9604 25.2803 11.0228C25.2491 11.0851 25.1297 11.2358 25.0985 11.5112C25.0673 11.7243 25.3115 12.3946 25.4362 12.7012L25.7427 13.7093L26.4129 14.9876C26.5064 15.1694 26.6882 15.5384 26.7506 15.6579C26.8129 15.8086 26.9012 16.2659 27.0259 16.6036C27.1194 16.879 27.1454 16.9414 27.1766 16.9414C27.2389 17.0349 27.3896 17.248 27.4208 17.3675C27.4831 17.487 27.4519 17.6429 27.4208 17.7053L27.3584 18.069C27.2649 18.4639 27.0831 19.3473 26.9948 19.6539C26.8441 20.0176 26.7817 20.2307 26.4752 20.5373C26.231 20.7815 25.6544 20.8127 25.4102 20.7815C24.8907 20.688 23.8256 20.5061 23.5815 20.4178C23.2438 20.3242 23.1243 19.9293 23.0308 19.6539C22.9372 19.3785 22.8801 19.0459 22.7866 18.8329C22.6931 18.6198 21.9917 18.069 21.7527 17.9183C21.5085 17.7676 21.2332 17.2792 20.4435 17.0661C19.6798 16.8531 19.8045 17.0349 18.7966 16.0268C17.7887 15.0187 18.2771 13.1585 17.7575 13.2208C17.3315 13.252 16.6925 13.7093 16.4172 13.9535C14.4949 16.4218 14.0065 19.1395 14.9833 22.3976C15.3054 23.468 15.4041 24.5021 15.3573 25.4738H32.7355V0.526123H27.4571H27.4519Z" fill="#262959"/>
<path d="M6.75387 0.526123H0V25.4686H6.75387V0.526123Z" fill="#262959"/>
<path d="M46.4808 2.48804V11.1223H44.0794V7.65569H41.1534V11.1223H38.752V2.48804H41.1534V5.73356H44.081V2.48804H46.4825H46.4808Z" fill="#262959"/>
<path d="M50.0571 10.6395C49.3793 10.2603 48.8418 9.73253 48.4464 9.05954C48.051 8.38655 47.8525 7.6248 47.8525 6.77589C47.8525 5.92699 48.051 5.16524 48.4464 4.49225C48.8418 3.81926 49.3793 3.29475 50.0571 2.91871C50.7349 2.54268 51.4773 2.35547 52.2859 2.35547C53.0944 2.35547 53.8481 2.54429 54.5211 2.91871C55.1941 3.29475 55.7283 3.81926 56.1188 4.49225C56.511 5.16524 56.7063 5.92699 56.7063 6.77589C56.7063 7.6248 56.511 8.38655 56.1188 9.05954C55.7267 9.73253 55.1925 10.2603 54.5146 10.6395C53.8368 11.0188 53.0944 11.2092 52.2859 11.2092C51.4773 11.2092 50.7349 11.0188 50.0571 10.6395ZM53.7384 8.3801C54.0934 7.97985 54.271 7.44566 54.271 6.77589C54.271 6.10613 54.0934 5.54934 53.7384 5.15233C53.3833 4.75693 52.8992 4.55842 52.2875 4.55842C51.6758 4.55842 51.1804 4.75693 50.8302 5.15233C50.4783 5.54934 50.304 6.08999 50.304 6.77589C50.304 7.4618 50.4799 7.99115 50.8302 8.38655C51.1804 8.78195 51.6678 8.98046 52.2875 8.98046C52.9072 8.98046 53.3833 8.78034 53.7384 8.3801Z" fill="#262959"/>
<path d="M62.4648 11.1239L60.7508 7.93973H60.4942V11.1239H58.0928V2.48804H61.8773C62.5713 2.48804 63.1588 2.60908 63.6413 2.84955C64.1222 3.09002 64.487 3.42086 64.7307 3.84209C64.976 4.26331 65.0986 4.73456 65.0986 5.25746C65.0986 5.84491 64.9373 6.36136 64.6145 6.80679C64.2917 7.25222 63.8204 7.56854 63.1991 7.75575L65.1471 11.1239H62.4648ZM60.4926 6.29842H61.6804C62.0064 6.29842 62.2518 6.22095 62.4148 6.06602C62.5778 5.91108 62.6601 5.68675 62.6601 5.39303C62.6601 5.11544 62.5761 4.89756 62.4083 4.73779C62.2405 4.57802 61.9984 4.49894 61.6788 4.49894H60.491V6.30003L60.4926 6.29842Z" fill="#262959"/>
<path d="M67.2665 10.4927C66.621 10.015 66.274 9.33067 66.2256 8.44142H68.7852C68.8094 8.74322 68.8998 8.96432 69.0547 9.10311C69.2097 9.24191 69.4098 9.31131 69.6551 9.31131C69.8762 9.31131 70.0569 9.25643 70.2006 9.14669C70.3426 9.03695 70.4152 8.88363 70.4152 8.68673C70.4152 8.43335 70.2974 8.23807 70.0602 8.09928C69.8229 7.96049 69.4388 7.80555 68.9095 7.63448C68.3462 7.44727 67.8911 7.2649 67.5441 7.08899C67.1971 6.91307 66.8953 6.65647 66.6371 6.31755C66.3805 5.97864 66.2514 5.53643 66.2514 4.98933C66.2514 4.44222 66.3902 3.95805 66.6678 3.56265C66.9454 3.16725 67.3295 2.86707 67.8185 2.66211C68.3091 2.45876 68.8643 2.35547 69.484 2.35547C70.4879 2.35547 71.29 2.5911 71.8903 3.05912C72.4907 3.52876 72.8102 4.18884 72.8522 5.03774H70.2425C70.2345 4.77629 70.1554 4.58101 70.0037 4.45029C69.852 4.31956 69.6583 4.25501 69.4227 4.25501C69.2435 4.25501 69.0967 4.30827 68.9821 4.41478C68.8675 4.5213 68.811 4.67139 68.811 4.86828C68.811 5.03129 68.874 5.1717 69.0015 5.29112C69.1273 5.40894 69.2855 5.51222 69.4727 5.59776C69.6599 5.6833 69.9375 5.79143 70.3055 5.92215C70.8526 6.11098 71.3045 6.29657 71.6595 6.47894C72.0146 6.66292 72.3212 6.91953 72.5778 7.25038C72.8344 7.58122 72.9635 7.99922 72.9635 8.50598C72.9635 9.01274 72.8344 9.48238 72.5778 9.89069C72.3212 10.299 71.9484 10.6218 71.4626 10.859C70.9769 11.0963 70.4039 11.2141 69.7422 11.2141C68.7384 11.2141 67.9137 10.9752 67.2682 10.4975L67.2665 10.4927Z" fill="#262959"/>
<path d="M76.7706 4.41179V5.82071H79.5271V7.64601H76.7706V9.20179H79.8935V11.1255H74.3691V2.48804H79.8935V4.41179H76.7706Z" fill="#262959"/>
<path d="M88.3945 11.1239L86.6805 7.93973H86.4239V11.1239H84.0225V2.48804H87.807C88.501 2.48804 89.0884 2.60908 89.571 2.84955C90.0519 3.09002 90.4167 3.42086 90.6604 3.84209C90.9057 4.26331 91.0283 4.73456 91.0283 5.25746C91.0283 5.84491 90.8669 6.36136 90.5442 6.80679C90.2214 7.25222 89.7501 7.56854 89.1288 7.75575L91.0767 11.1239H88.3945ZM86.4223 6.29842H87.6101C87.9361 6.29842 88.1814 6.22095 88.3444 6.06602C88.5074 5.91108 88.5897 5.68675 88.5897 5.39303C88.5897 5.11544 88.5058 4.89756 88.338 4.73779C88.1701 4.57802 87.9281 4.49894 87.6085 4.49894H86.4207V6.30003L86.4223 6.29842Z" fill="#262959"/>
<path d="M94.8253 2.48804V11.1223H92.4238V2.48804H94.8253Z" fill="#262959"/>
<path d="M102.302 3.03353C102.983 3.39665 103.509 3.90503 103.875 4.55865C104.243 5.21227 104.427 5.9595 104.427 6.80033C104.427 7.64117 104.241 8.37548 103.87 9.02911C103.499 9.68273 102.971 10.1943 102.29 10.5655C101.608 10.9367 100.818 11.1223 99.9195 11.1223H96.5029V2.48804H99.9195C100.827 2.48804 101.621 2.67041 102.302 3.03353ZM101.39 8.42874C101.79 8.04464 101.99 7.50237 101.99 6.80033C101.99 6.09829 101.79 5.5415 101.39 5.15256C100.99 4.76523 100.438 4.57156 99.7355 4.57156H98.9028V9.0049H99.7355C100.438 9.0049 100.99 8.81284 101.39 8.42874Z" fill="#262959"/>
<path d="M108.212 4.41179V5.82071H110.969V7.64601H108.212V9.20179H111.335V11.1255H105.811V2.48804H111.335V4.41179H108.212Z" fill="#262959"/>
<path d="M117.201 11.1239L115.487 7.93973H115.231V11.1239H112.829V2.48804H116.614C117.308 2.48804 117.895 2.60908 118.378 2.84955C118.859 3.09002 119.223 3.42086 119.467 3.84209C119.712 4.26331 119.835 4.73456 119.835 5.25746C119.835 5.84491 119.674 6.36136 119.351 6.80679C119.028 7.25222 118.557 7.56854 117.935 7.75575L119.883 11.1239H117.201ZM115.229 6.29842H116.417C116.743 6.29842 116.988 6.22095 117.151 6.06602C117.314 5.91108 117.396 5.68675 117.396 5.39303C117.396 5.11544 117.312 4.89756 117.145 4.73779C116.977 4.57802 116.735 4.49894 116.415 4.49894H115.227V6.30003L115.229 6.29842Z" fill="#262959"/>
<path d="M122.003 10.4927C121.357 10.015 121.01 9.33067 120.962 8.44142H123.522C123.546 8.74322 123.636 8.96432 123.791 9.10311C123.946 9.24191 124.146 9.31131 124.391 9.31131C124.613 9.31131 124.793 9.25643 124.937 9.14669C125.079 9.03695 125.152 8.88363 125.152 8.68673C125.152 8.43335 125.034 8.23807 124.797 8.09928C124.559 7.96049 124.175 7.80555 123.646 7.63448C123.083 7.44727 122.627 7.2649 122.28 7.08899C121.933 6.91307 121.632 6.65647 121.373 6.31755C121.117 5.97864 120.988 5.53643 120.988 4.98933C120.988 4.44222 121.127 3.95805 121.404 3.56265C121.682 3.16725 122.066 2.86707 122.555 2.66211C123.045 2.45876 123.601 2.35547 124.22 2.35547C125.224 2.35547 126.026 2.5911 126.627 3.05912C127.227 3.52876 127.547 4.18884 127.589 5.03774H124.979C124.971 4.77629 124.892 4.58101 124.74 4.45029C124.588 4.31956 124.395 4.25501 124.159 4.25501C123.98 4.25501 123.833 4.30827 123.718 4.41478C123.604 4.5213 123.547 4.67139 123.547 4.86828C123.547 5.03129 123.61 5.1717 123.738 5.29112C123.864 5.40894 124.022 5.51222 124.209 5.59776C124.396 5.6833 124.674 5.79143 125.042 5.92215C125.589 6.11098 126.041 6.29657 126.396 6.47894C126.751 6.66292 127.058 6.91953 127.314 7.25038C127.571 7.58122 127.7 7.99922 127.7 8.50598C127.7 9.01274 127.571 9.48238 127.314 9.89069C127.058 10.299 126.685 10.6218 126.199 10.859C125.713 11.0963 125.14 11.2141 124.479 11.2141C123.475 11.2141 122.65 10.9752 122.004 10.4975L122.003 10.4927Z" fill="#262959"/>
<path d="M46.2 14.4534V23.0521H44.1052V19.5129H40.8468V23.0521H38.752V14.4534H40.8468V17.8215H44.1052V14.4534H46.2Z" fill="#262959"/>
<path d="M49.8563 22.5744C49.1833 22.1983 48.6475 21.6738 48.2521 21.0008C47.8567 20.3279 47.6582 19.5693 47.6582 18.7285C47.6582 17.8877 47.8567 17.1324 48.2521 16.4626C48.6475 15.7928 49.1833 15.2699 49.8563 14.8955C50.5293 14.5195 51.2717 14.3323 52.0786 14.3323C52.8856 14.3323 53.628 14.5211 54.3009 14.8955C54.9739 15.2716 55.5049 15.7945 55.8938 16.4626C56.2812 17.1324 56.4765 17.8877 56.4765 18.7285C56.4765 19.5693 56.2812 20.3262 55.889 21.0008C55.4968 21.6738 54.9659 22.2 54.2961 22.5744C53.6263 22.9504 52.8872 23.1376 52.0786 23.1376C51.2701 23.1376 50.5293 22.9504 49.8563 22.5744ZM53.7264 20.5409C54.1379 20.0842 54.3445 19.4789 54.3445 18.7285C54.3445 17.978 54.1379 17.3631 53.7264 16.9096C53.3132 16.4561 52.7645 16.2302 52.0786 16.2302C51.3927 16.2302 50.8311 16.4545 50.4196 16.9032C50.0064 17.3519 49.8014 17.9603 49.8014 18.7285C49.8014 19.4967 50.008 20.0938 50.4196 20.5473C50.8311 21.0008 51.3847 21.2268 52.0786 21.2268C52.7726 21.2268 53.3132 20.9976 53.7264 20.5409Z" fill="#262959"/>
<path d="M60.004 14.4534V19.5984C60.004 20.1133 60.1299 20.5087 60.3833 20.7862C60.6366 21.0638 61.0078 21.2026 61.4985 21.2026C61.9891 21.2026 62.3635 21.0638 62.625 20.7862C62.8864 20.5087 63.0171 20.1133 63.0171 19.5984V14.4534H65.1119V19.5855C65.1119 20.3537 64.9489 21.0025 64.6213 21.5335C64.2953 22.0644 63.8563 22.4647 63.3044 22.7342C62.7524 23.0037 62.1392 23.1377 61.4613 23.1377C60.7835 23.1377 60.1767 23.0053 59.6425 22.739C59.1083 22.4744 58.6855 22.0741 58.374 21.5383C58.0641 21.0041 57.9092 20.3521 57.9092 19.5855V14.4534H60.004Z" fill="#262959"/>
<path d="M68.3071 22.8309C67.8084 22.6275 67.4114 22.3241 67.1129 21.9239C66.8143 21.5236 66.6577 21.0427 66.6416 20.4778H68.8704C68.9027 20.7958 69.0124 21.0395 69.2012 21.2073C69.3884 21.3752 69.6337 21.4591 69.9355 21.4591C70.2373 21.4591 70.4907 21.3881 70.6699 21.2444C70.849 21.1024 70.9394 20.9039 70.9394 20.6505C70.9394 20.4375 70.8684 20.2632 70.7247 20.1244C70.5811 19.9856 70.4068 19.871 70.1986 19.7823C69.9904 19.6919 69.6951 19.5902 69.311 19.4756C68.7558 19.3046 68.3023 19.1335 67.9521 18.9608C67.6003 18.7897 67.2985 18.5363 67.0451 18.2007C66.7917 17.8666 66.6658 17.4292 66.6658 16.8902C66.6658 16.0897 66.9563 15.4635 67.5357 15.01C68.1151 14.5565 68.8704 14.3306 69.8016 14.3306C70.7328 14.3306 71.5123 14.5565 72.0917 15.01C72.6711 15.4635 72.9809 16.0945 73.0229 16.9031H70.757C70.7409 16.6255 70.6392 16.4076 70.4504 16.2479C70.2615 16.0881 70.0211 16.009 69.7274 16.009C69.474 16.009 69.2706 16.0768 69.1157 16.2107C68.9608 16.3447 68.8833 16.54 68.8833 16.7934C68.8833 17.0709 69.014 17.2872 69.2755 17.4421C69.5369 17.5971 69.9452 17.7649 70.5004 17.9441C71.0556 18.1313 71.5075 18.312 71.8545 18.4831C72.2014 18.6542 72.5016 18.9043 72.755 19.2303C73.0084 19.5563 73.1343 19.9775 73.1343 20.4924C73.1343 21.0072 73.01 21.4268 72.7615 21.8271C72.5129 22.2273 72.1514 22.5452 71.6769 22.7825C71.2041 23.0197 70.644 23.1375 69.9985 23.1375C69.3529 23.1375 68.8058 23.0359 68.3087 22.8309H68.3071Z" fill="#262959"/>
<path d="M76.8207 16.1318V17.8716H79.6257V19.4887H76.8207V21.3753H79.9936V23.0538H74.7275V14.4534H79.9936V16.1318H76.8207Z" fill="#262959"/>
</svg>
