<svg width="128" height="49" viewBox="0 0 128 49" fill="none" xmlns="http://www.w3.org/2000/svg">
<g id="itipoHRH 1" clip-path="url(#clip0_1767_64695)">
<path id="Vector" d="M121.215 9.44473V20.1892H110.659V9.44473H103.874V36.8724H110.659V25.581H121.215V36.8724H128V9.44473H121.215ZM84.3899 15.7351H88.239C89.2707 15.7351 90.0591 15.9878 90.6014 16.4957C91.1437 17.0036 91.4136 17.7017 91.4136 18.5873C91.4136 19.525 91.149 20.2413 90.6199 20.7362C90.0908 21.2311 89.2972 21.4785 88.239 21.4785H84.3899V15.7351ZM99.4689 36.8724L93.1596 26.128C95.1701 25.5289 96.6965 24.5209 97.7441 23.1013C98.7891 21.6817 99.3102 20.0355 99.3102 18.1601C99.3102 16.4931 98.9134 14.9902 98.1198 13.6461C97.3261 12.3047 96.1489 11.2498 94.5881 10.4814C93.0273 9.71301 91.1226 9.32751 88.8739 9.32751H76.6123V36.8724H84.3899V26.714H85.2232L90.7787 36.8724H99.4689ZM63.3983 9.32751V19.6813H53.9143V9.32751H46.1367V36.8724H53.9143V25.8154H63.3983V36.8724H71.1759V9.32751H63.3983Z" fill="#262A5A"/>
<path id="Vector_2" d="M19.7192 34.5464C21.7747 41.2431 18.2033 47.1689 16.3912 49C16.243 48.8072 16.0975 47.893 15.8515 45.8691C15.5076 43.3634 14.6293 41.725 13.6981 40.183C13.2087 39.412 11.1056 36.7135 10.0765 35.7029C9.24584 34.5464 7.19033 31.7046 5.8676 29.6313C4.54752 27.5605 4.39938 24.5729 4.54752 23.32C3.47083 27.6569 8.41252 36.8099 7.62947 35.8461C-2.93645 23.1299 4.40467 14.7453 3.27771 15.6622C2.10313 16.6259 0.685171 17.251 0 17.3005C0.44179 17.2042 1.95763 16.0008 4.50255 11.8567C7.68238 6.70193 12.0871 6.55606 11.3516 6.4128C8.17179 5.78507 6.40992 2.75057 5.92051 1.30495C5.87289 1.16169 6.06866 1.16169 7.29085 2.31558C8.85696 3.7612 10.0315 3.66482 10.7643 4.09721C11.4971 4.57908 17.5658 5.92832 15.169 4.82132C12.7696 3.71431 11.4998 -0.140674 11.5976 0.00519C12.0368 0.776187 12.5765 1.30495 14.4362 2.51093C16.296 3.71431 16.1478 3.32881 17.5684 3.90706C18.6927 4.38893 19.3303 4.48531 19.5261 4.48531C20.3567 4.58168 21.7271 4.72494 20.4546 4.43843C18.8885 4.09981 18.0076 2.07855 18.2536 2.46405C18.4996 2.84954 18.5975 2.75317 19.2324 3.13867C19.87 3.52417 21.2377 3.95655 22.071 4.10242C22.854 4.24568 24.6159 4.5374 25.3011 4.73015C25.9862 4.9229 28.383 5.74079 28.8724 5.93353C29.2639 6.0794 30.9755 7.18641 31.7586 7.71516C31.1713 8.05117 30.047 8.72579 30.4385 8.67891C30.9279 8.67891 32.494 7.66567 33.1792 7.09003C33.7665 6.65765 34.7929 4.96979 35.2823 4.19879C35.2823 4.58429 35.2823 5.54804 35.2347 6.17317C35.1845 6.99366 34.8432 8.19704 34.5495 9.01492C34.2559 9.8328 33.8168 10.075 33.8644 10.2678C33.9146 10.51 34.2083 11.4712 34.2083 11.9062C34.1607 12.3385 34.4517 12.5808 34.5998 13.0132C34.6977 13.3492 35.3352 14.266 35.6262 14.6515C35.7717 14.8443 36.1157 15.3262 36.3114 15.5189C36.5574 15.7117 36.4596 15.808 36.4093 15.808V16.2899C36.3617 16.3368 36.3114 16.4827 36.2638 16.579C36.2135 16.6754 36.0178 16.915 35.9702 17.35C35.9225 17.686 36.3141 18.7462 36.5098 19.228L36.9992 20.8169L38.0759 22.8408C38.2214 23.1299 38.5151 23.7081 38.613 23.9009C38.7108 24.1405 38.859 24.8646 39.0547 25.3934C39.2002 25.8258 39.2505 25.9222 39.2981 25.9222C39.396 26.068 39.6394 26.404 39.6897 26.5968C39.7875 26.7895 39.7399 27.0292 39.6897 27.1255L39.5918 27.7038C39.4463 28.3315 39.1526 29.7277 39.0045 30.2095C38.7611 30.7878 38.6632 31.1238 38.1712 31.6057C37.7796 31.9912 36.8511 32.0406 36.4596 31.9912C35.6262 31.8479 33.9146 31.5562 33.5231 31.4129C32.9861 31.2697 32.7903 30.6419 32.6422 30.2095C32.494 29.7771 32.3962 29.2458 32.2507 28.9098C32.1025 28.5738 30.9782 27.7064 30.5867 27.4642C30.1951 27.2245 29.7534 26.4535 28.4835 26.1149C27.2613 25.7763 27.4545 26.068 25.8407 24.4765C24.227 22.8877 25.0074 19.9469 24.1767 20.0433C23.4916 20.0902 22.4651 20.8143 22.0234 21.1998C18.9414 25.1017 18.1584 29.389 19.7245 34.5438" fill="#262959"/>
</g>
<defs>
<clipPath id="clip0_1767_64695">
<rect width="128" height="49" fill="white"/>
</clipPath>
</defs>
</svg>
