<svg width="21" height="20" viewBox="0 0 21 20" fill="none" xmlns="http://www.w3.org/2000/svg">
<g id="plus">
<path id="plus_2" d="M16.9596 10.0013C16.9596 10.3463 16.6796 10.6263 16.3346 10.6263H11.1263V15.8346C11.1263 16.1796 10.8463 16.4596 10.5013 16.4596C10.1563 16.4596 9.8763 16.1796 9.8763 15.8346V10.6263H4.66797C4.32297 10.6263 4.04297 10.3463 4.04297 10.0013C4.04297 9.6563 4.32297 9.3763 4.66797 9.3763H9.8763V4.16797C9.8763 3.82297 10.1563 3.54297 10.5013 3.54297C10.8463 3.54297 11.1263 3.82297 11.1263 4.16797V9.3763H16.3346C16.6796 9.3763 16.9596 9.6563 16.9596 10.0013Z" fill="white"/>
</g>
</svg>
