<svg width="24" height="24" viewBox="0 0 24 24" fill="none" xmlns="http://www.w3.org/2000/svg">
<g clip-path="url(#clip0_1479_2077)">
<path fill-rule="evenodd" clip-rule="evenodd" d="M7.18874 7.18919C7.43282 6.94511 7.82854 6.94511 8.07262 7.18919L11.9995 11.1161L15.9265 7.18919C16.1706 6.94511 16.5663 6.94511 16.8104 7.18919C17.0544 7.43327 17.0544 7.829 16.8104 8.07307L12.8834 12L16.8104 15.9269C17.0544 16.171 17.0544 16.5667 16.8104 16.8108C16.5663 17.0549 16.1706 17.0549 15.9265 16.8108L11.9995 12.8839L8.07262 16.8108C7.82854 17.0549 7.43282 17.0549 7.18874 16.8108C6.94466 16.5667 6.94466 16.171 7.18874 15.9269L11.1157 12L7.18874 8.07307C6.94466 7.829 6.94466 7.43327 7.18874 7.18919Z" fill="#656579"/>
</g>
<defs>
<clipPath id="clip0_1479_2077">
<rect width="24" height="24" rx="12" fill="white"/>
</clipPath>
</defs>
</svg>
