<svg width="16" height="16" viewBox="0 0 16 16" fill="none" xmlns="http://www.w3.org/2000/svg">
<g clip-path="url(#clip0_1089_57477)">
<path fill-rule="evenodd" clip-rule="evenodd" d="M7.99967 4.16659C8.27582 4.16659 8.49967 4.39044 8.49967 4.66659V8.66659C8.49967 8.94273 8.27582 9.16659 7.99967 9.16659C7.72353 9.16659 7.49967 8.94273 7.49967 8.66659V4.66659C7.49967 4.39044 7.72353 4.16659 7.99967 4.16659Z" fill="#F76174"/>
<path fill-rule="evenodd" clip-rule="evenodd" d="M8.34082 10.9609C8.54608 11.1456 8.56272 11.4617 8.37799 11.667L8.37132 11.6744C8.18659 11.8797 7.87045 11.8963 7.66519 11.7116C7.45994 11.5268 7.4433 11.2107 7.62803 11.0054L7.63469 10.998C7.81942 10.7928 8.13557 10.7761 8.34082 10.9609Z" fill="#F76174"/>
<path fill-rule="evenodd" clip-rule="evenodd" d="M7.99967 1.83325C4.59392 1.83325 1.83301 4.59416 1.83301 7.99992C1.83301 11.4057 4.59392 14.1666 7.99967 14.1666C11.4054 14.1666 14.1663 11.4057 14.1663 7.99992C14.1663 4.59416 11.4054 1.83325 7.99967 1.83325ZM0.833008 7.99992C0.833008 4.04188 4.04163 0.833252 7.99967 0.833252C11.9577 0.833252 15.1663 4.04188 15.1663 7.99992C15.1663 11.958 11.9577 15.1666 7.99967 15.1666C4.04163 15.1666 0.833008 11.958 0.833008 7.99992Z" fill="#F76174"/>
</g>
<defs>
<clipPath id="clip0_1089_57477">
<rect width="16" height="16" fill="white"/>
</clipPath>
</defs>
</svg>
