<svg width="18" height="18" viewBox="0 0 18 18" fill="none" xmlns="http://www.w3.org/2000/svg">
<path fill-rule="evenodd" clip-rule="evenodd" d="M5.49774 1.50024H12.502C15.0527 1.50024 16.4927 2.94699 16.5002 5.49774V12.5027C16.5002 15.0527 15.0527 16.5002 12.502 16.5002H5.49774C2.94699 16.5002 1.50024 15.0527 1.50024 12.5027V5.49774C1.50024 2.94699 2.94699 1.50024 5.49774 1.50024ZM9.03704 13.3952C9.36029 13.3952 9.62954 13.1552 9.65954 12.8327V5.19024C9.68954 4.95774 9.57779 4.72449 9.37529 4.59774C9.16454 4.47024 8.90954 4.47024 8.70779 4.59774C8.50454 4.72449 8.39279 4.95774 8.41454 5.19024V12.8327C8.45279 13.1552 8.72204 13.3952 9.03704 13.3952ZM12.4878 13.3952C12.8028 13.3952 13.072 13.1552 13.1103 12.8327V10.3727C13.132 10.132 13.0203 9.90775 12.817 9.78025C12.6153 9.65275 12.3603 9.65275 12.1503 9.78025C11.947 9.90775 11.8353 10.132 11.8653 10.3727V12.8327C11.8953 13.1552 12.1645 13.3952 12.4878 13.3952ZM6.16452 12.8327C6.13452 13.1552 5.86527 13.3952 5.54202 13.3952C5.21952 13.3952 4.94952 13.1552 4.92027 12.8327V7.65024C4.89777 7.41699 5.00952 7.18524 5.21277 7.05774C5.41452 6.93024 5.67027 6.93024 5.87277 7.05774C6.07452 7.18524 6.18777 7.41699 6.16452 7.65024V12.8327Z" fill="#707FDD"/>
</svg>
