<svg width="18" height="18" viewBox="0 0 18 18" fill="none" xmlns="http://www.w3.org/2000/svg">
<path fill-rule="evenodd" clip-rule="evenodd" d="M5.75238 1.49951H12.2549C14.7974 1.49951 16.4999 3.28451 16.4999 5.93951V12.0678C16.4999 14.7153 14.7974 16.4995 12.2549 16.4995H5.75238C3.20988 16.4995 1.49988 14.7153 1.49988 12.0678V5.93951C1.49988 3.28451 3.20988 1.49951 5.75238 1.49951ZM8.99244 6.79528C8.63994 6.79528 8.34744 6.50203 8.34744 6.14278C8.34744 5.77527 8.63994 5.48277 9.00744 5.48277C9.36744 5.48277 9.65994 5.77527 9.65994 6.14278C9.65994 6.50203 9.36744 6.79528 8.99244 6.79528ZM9.65232 11.8353C9.65232 12.1953 9.35981 12.4878 8.99231 12.4878C8.63231 12.4878 8.33981 12.1953 8.33981 11.8353V8.52025C8.33981 8.1595 8.63231 7.86025 8.99231 7.86025C9.35981 7.86025 9.65232 8.1595 9.65232 8.52025V11.8353Z" fill="#A6ABC8"/>
</svg>
