<svg width="18" height="18" viewBox="0 0 18 18" fill="none" xmlns="http://www.w3.org/2000/svg">
<path fill-rule="evenodd" clip-rule="evenodd" d="M15.3016 10.185C15.5699 10.3275 15.7768 10.5525 15.9225 10.7775C16.2061 11.2425 16.1831 11.8125 15.9071 12.315L15.3706 13.215C15.087 13.695 14.5582 13.995 14.014 13.995C13.7457 13.995 13.4468 13.92 13.2015 13.77C13.0022 13.6425 12.7723 13.5975 12.527 13.5975C11.7682 13.5975 11.1321 14.22 11.1091 14.9625C11.1091 15.825 10.4039 16.5 9.52247 16.5H8.48007C7.59097 16.5 6.88582 15.825 6.88582 14.9625C6.87049 14.22 6.23432 13.5975 5.47552 13.5975C5.22258 13.5975 4.99264 13.6425 4.80102 13.77C4.55575 13.92 4.24917 13.995 3.98857 13.995C3.43671 13.995 2.90785 13.695 2.62426 13.215L2.09539 12.315C1.8118 11.8275 1.79647 11.2425 2.08006 10.7775C2.2027 10.5525 2.43264 10.3275 2.69324 10.185C2.90785 10.08 3.04581 9.9075 3.17611 9.705C3.55935 9.06 3.32941 8.2125 2.67791 7.83C1.91911 7.4025 1.67384 6.45 2.11072 5.7075L2.62426 4.8225C3.06881 4.08 4.01923 3.8175 4.7857 4.2525C5.45252 4.6125 6.31863 4.3725 6.70953 3.735C6.83216 3.525 6.90115 3.3 6.88582 3.075C6.87049 2.7825 6.9548 2.505 7.10043 2.28C7.38402 1.815 7.89756 1.515 8.45708 1.5H9.5378C10.105 1.5 10.6185 1.815 10.9021 2.28C11.0401 2.505 11.1321 2.7825 11.1091 3.075C11.0937 3.3 11.1627 3.525 11.2853 3.735C11.6762 4.3725 12.5424 4.6125 13.2168 4.2525C13.9756 3.8175 14.9337 4.08 15.3706 4.8225L15.8842 5.7075C16.3287 6.45 16.0834 7.4025 15.317 7.83C14.6655 8.2125 14.4355 9.06 14.8264 9.705C14.9491 9.9075 15.087 10.08 15.3016 10.185ZM6.83209 9.0075C6.83209 10.185 7.8055 11.1225 9.00886 11.1225C10.2122 11.1225 11.1626 10.185 11.1626 9.0075C11.1626 7.83 10.2122 6.885 9.00886 6.885C7.8055 6.885 6.83209 7.83 6.83209 9.0075Z" fill="#A6ABC8"/>
</svg>
